<svg width="512" height="395" viewBox="0 0 512 395" xmlns="http://www.w3.org/2000/svg" preserveAspectRatio="xMidYMid"><defs><linearGradient x1="-57.527%" y1="50.124%" x2="232.391%" y2="50.124%" id="a"><stop stop-color="#007940" offset="0%"/><stop stop-color="#00873F" offset="22.85%"/><stop stop-color="#40A737" offset="74.33%"/><stop stop-color="#5CB531" offset="100%"/></linearGradient><linearGradient x1=".183%" y1="49.96%" x2="100.273%" y2="49.96%" id="b"><stop stop-color="#007940" offset="0%"/><stop stop-color="#00873F" offset="22.85%"/><stop stop-color="#40A737" offset="74.33%"/><stop stop-color="#5CB531" offset="100%"/></linearGradient><linearGradient x1="-62.802%" y1="49.858%" x2="253.671%" y2="49.858%" id="c"><stop stop-color="#007940" offset="0%"/><stop stop-color="#00873F" offset="22.85%"/><stop stop-color="#40A737" offset="74.33%"/><stop stop-color="#5CB531" offset="100%"/></linearGradient><linearGradient x1=".176%" y1="50.006%" x2="101.808%" y2="50.006%" id="d"><stop stop-color="#1F286F" offset="0%"/><stop stop-color="#004E94" offset="47.51%"/><stop stop-color="#0066B1" offset="82.61%"/><stop stop-color="#006FBC" offset="100%"/></linearGradient><linearGradient x1="-.576%" y1="49.914%" x2="98.133%" y2="49.914%" id="e"><stop stop-color="#6C2C2F" offset="0%"/><stop stop-color="#882730" offset="17.35%"/><stop stop-color="#BE1833" offset="57.31%"/><stop stop-color="#DC0436" offset="85.85%"/><stop stop-color="#E60039" offset="100%"/></linearGradient></defs><path d="M512 314.836c0 43.814-35.677 79.491-79.491 79.491h-432.509v-314.836c0-43.814 35.677-79.491 79.491-79.491h432.509v314.836z" fill="#fff"/><path d="M371.169 234.093h32.861l4.068-.313c6.259-1.252 11.579-6.885 11.579-14.709 0-7.511-5.32-13.144-11.579-14.709-.939-.313-2.817-.313-4.068-.313h-32.861v30.044z" fill="url(#a)"/><path d="M400.274 26.601c-31.296 0-56.958 25.35-56.958 56.958v59.149h80.43c1.878 0 4.068 0 5.633.313 18.152.939 31.609 10.328 31.609 26.601 0 12.831-9.076 23.785-25.976 25.976v.626c18.465 1.252 32.548 11.579 32.548 27.54 0 17.213-15.648 28.479-36.303 28.479h-88.254v115.795h83.56c31.296 0 56.958-25.35 56.958-56.958v-284.479h-83.247z" fill="url(#b)"/><path d="M415.609 173.379c0-7.511-5.32-12.518-11.579-13.457-.626 0-2.191-.313-3.13-.313h-29.731v27.54h29.731c.939 0 2.817 0 3.13-.313 6.259-.939 11.579-5.946 11.579-13.457z" fill="url(#c)"/><path d="M85.438 26.601c-31.296 0-56.958 25.35-56.958 56.958v140.518c15.961 7.824 32.548 12.831 49.134 12.831 19.716 0 30.357-11.892 30.357-28.166v-66.347h48.822v66.034c0 25.663-15.961 46.631-70.103 46.631-32.861 0-58.523-7.198-58.523-7.198v119.863h83.56c31.296 0 56.958-25.35 56.958-56.958v-284.166h-83.247z" fill="url(#d)"/><path d="M242.856 26.601c-31.296 0-56.958 25.35-56.958 56.958v74.484c14.396-12.205 39.433-20.029 79.804-18.152 21.594.939 44.753 6.885 44.753 6.885v24.098c-11.579-5.946-25.35-11.267-43.188-12.518-30.67-2.191-49.134 12.831-49.134 39.12 0 26.601 18.465 41.623 49.134 39.12 17.839-1.252 31.609-6.885 43.188-12.518v24.098s-22.846 5.946-44.753 6.885c-40.372 1.878-65.408-5.946-79.804-18.152v131.443h83.56c31.296 0 56.958-25.35 56.958-56.958v-284.792h-83.56z" fill="url(#e)"/></svg>